STARTFONT 2.1
FONT -FontForge-PF Westa Seven-Book-R-Normal--8-80-72-72-P-58-ISO10646-1
SIZE 8 72 72
FONTBOUNDINGBOX 11 12 -1 -2
COMMENT "Generated by fontforge, http://fontforge.sourceforge.net"
COMMENT "Copyright (C) 2007 Yusuke Kamiyamane. All rights reserved."
STARTPROPERTIES 39
FOUNDRY "FontForge"
FAMILY_NAME "PF Westa Seven"
WEIGHT_NAME "Book"
SLANT "R"
SETWIDTH_NAME "Normal"
ADD_STYLE_NAME ""
PIXEL_SIZE 8
POINT_SIZE 80
RESOLUTION_X 72
RESOLUTION_Y 72
SPACING "P"
AVERAGE_WIDTH 58
CHARSET_REGISTRY "ISO10646"
CHARSET_ENCODING "1"
FONTNAME_REGISTRY ""
CHARSET_COLLECTIONS "ISO10646-1"
FONT_NAME "PFWestaSeven"
FACE_NAME "PF Westa Seven"
COPYRIGHT "Copyright (C) 2007 Yusuke Kamiyamane. All rights reserved."
FONT_VERSION "1.1"
FONT_ASCENT 6
FONT_DESCENT 2
UNDERLINE_POSITION -2
UNDERLINE_THICKNESS 1
X_HEIGHT 4
CAP_HEIGHT 6
RAW_ASCENT 800
RAW_DESCENT 200
NORM_SPACE 4
RELATIVE_WEIGHT 40
RELATIVE_SETWIDTH 50
SUPERSCRIPT_X 0
SUPERSCRIPT_Y 3
SUPERSCRIPT_SIZE 5
SUBSCRIPT_X 0
SUBSCRIPT_Y 1
SUBSCRIPT_SIZE 5
AVG_LOWERCASE_WIDTH 62
AVG_UPPERCASE_WIDTH 71
ENDPROPERTIES
CHARS 95
STARTCHAR space
ENCODING 32
SWIDTH 500 0
DWIDTH 4 0
BBX 1 1 0 0
BITMAP
00
ENDCHAR
STARTCHAR exclam
ENCODING 33
SWIDTH 375 0
DWIDTH 3 0
BBX 1 7 1 0
BITMAP
80
80
80
80
80
00
80
ENDCHAR
STARTCHAR quotedbl
ENCODING 34
SWIDTH 500 0
DWIDTH 4 0
BBX 3 2 0 5
BITMAP
A0
A0
ENDCHAR
STARTCHAR numbersign
ENCODING 35
SWIDTH 750 0
DWIDTH 6 0
BBX 5 7 0 0
BITMAP
50
50
F8
50
F8
50
50
ENDCHAR
STARTCHAR dollar
ENCODING 36
SWIDTH 750 0
DWIDTH 6 0
BBX 5 9 0 -1
BITMAP
20
78
A8
A0
70
28
A8
F0
20
ENDCHAR
STARTCHAR percent
ENCODING 37
SWIDTH 1000 0
DWIDTH 8 0
BBX 7 7 0 0
BITMAP
42
A4
48
10
24
4A
84
ENDCHAR
STARTCHAR ampersand
ENCODING 38
SWIDTH 875 0
DWIDTH 7 0
BBX 6 7 0 0
BITMAP
30
48
50
64
94
88
74
ENDCHAR
STARTCHAR quotesingle
ENCODING 39
SWIDTH 250 0
DWIDTH 2 0
BBX 1 2 0 5
BITMAP
80
80
ENDCHAR
STARTCHAR parenleft
ENCODING 40
SWIDTH 500 0
DWIDTH 4 0
BBX 3 9 0 -1
BITMAP
20
40
80
80
80
80
80
40
20
ENDCHAR
STARTCHAR parenright
ENCODING 41
SWIDTH 500 0
DWIDTH 4 0
BBX 3 9 0 -1
BITMAP
80
40
20
20
20
20
20
40
80
ENDCHAR
STARTCHAR asterisk
ENCODING 42
SWIDTH 750 0
DWIDTH 6 0
BBX 5 5 0 2
BITMAP
50
20
F8
20
50
ENDCHAR
STARTCHAR plus
ENCODING 43
SWIDTH 750 0
DWIDTH 6 0
BBX 5 5 0 0
BITMAP
20
20
F8
20
20
ENDCHAR
STARTCHAR comma
ENCODING 44
SWIDTH 375 0
DWIDTH 3 0
BBX 2 2 0 -1
BITMAP
40
80
ENDCHAR
STARTCHAR hyphen
ENCODING 45
SWIDTH 500 0
DWIDTH 4 0
BBX 3 1 0 2
BITMAP
E0
ENDCHAR
STARTCHAR period
ENCODING 46
SWIDTH 375 0
DWIDTH 3 0
BBX 1 1 1 0
BITMAP
80
ENDCHAR
STARTCHAR slash
ENCODING 47
SWIDTH 625 0
DWIDTH 5 0
BBX 5 9 0 -1
BITMAP
08
08
10
10
20
40
40
80
80
ENDCHAR
STARTCHAR zero
ENCODING 48
SWIDTH 750 0
DWIDTH 6 0
BBX 5 5 0 0
BITMAP
70
88
88
88
70
ENDCHAR
STARTCHAR one
ENCODING 49
SWIDTH 375 0
DWIDTH 3 0
BBX 2 5 0 0
BITMAP
C0
40
40
40
C0
ENDCHAR
STARTCHAR two
ENCODING 50
SWIDTH 750 0
DWIDTH 6 0
BBX 5 5 0 0
BITMAP
70
88
30
40
F8
ENDCHAR
STARTCHAR three
ENCODING 51
SWIDTH 750 0
DWIDTH 6 0
BBX 5 7 0 -2
BITMAP
70
88
08
30
08
88
70
ENDCHAR
STARTCHAR four
ENCODING 52
SWIDTH 750 0
DWIDTH 6 0
BBX 5 7 0 -2
BITMAP
10
30
50
90
F8
10
10
ENDCHAR
STARTCHAR five
ENCODING 53
SWIDTH 750 0
DWIDTH 6 0
BBX 5 7 0 -2
BITMAP
78
40
40
F0
08
88
70
ENDCHAR
STARTCHAR six
ENCODING 54
SWIDTH 750 0
DWIDTH 6 0
BBX 5 7 0 0
BITMAP
30
40
80
F0
88
88
70
ENDCHAR
STARTCHAR seven
ENCODING 55
SWIDTH 750 0
DWIDTH 6 0
BBX 5 7 0 -2
BITMAP
F8
08
10
10
20
20
40
ENDCHAR
STARTCHAR eight
ENCODING 56
SWIDTH 750 0
DWIDTH 6 0
BBX 5 7 0 0
BITMAP
70
88
88
70
88
88
70
ENDCHAR
STARTCHAR nine
ENCODING 57
SWIDTH 750 0
DWIDTH 6 0
BBX 5 7 0 -2
BITMAP
70
88
88
78
08
10
60
ENDCHAR
STARTCHAR colon
ENCODING 58
SWIDTH 375 0
DWIDTH 3 0
BBX 1 5 1 0
BITMAP
80
00
00
00
80
ENDCHAR
STARTCHAR semicolon
ENCODING 59
SWIDTH 375 0
DWIDTH 3 0
BBX 2 6 0 -1
BITMAP
40
00
00
00
40
80
ENDCHAR
STARTCHAR less
ENCODING 60
SWIDTH 750 0
DWIDTH 6 0
BBX 5 5 0 0
BITMAP
08
30
C0
30
08
ENDCHAR
STARTCHAR equal
ENCODING 61
SWIDTH 500 0
DWIDTH 4 0
BBX 3 3 0 1
BITMAP
E0
00
E0
ENDCHAR
STARTCHAR greater
ENCODING 62
SWIDTH 750 0
DWIDTH 6 0
BBX 5 5 0 0
BITMAP
80
60
18
60
80
ENDCHAR
STARTCHAR question
ENCODING 63
SWIDTH 750 0
DWIDTH 6 0
BBX 5 7 0 0
BITMAP
70
88
08
10
20
00
20
ENDCHAR
STARTCHAR at
ENCODING 64
SWIDTH 1125 0
DWIDTH 9 0
BBX 8 9 0 -1
BITMAP
3C
42
99
85
9D
A5
9D
42
38
ENDCHAR
STARTCHAR A
ENCODING 65
SWIDTH 1000 0
DWIDTH 8 0
BBX 7 7 0 0
BITMAP
18
24
24
24
3C
42
E6
ENDCHAR
STARTCHAR B
ENCODING 66
SWIDTH 875 0
DWIDTH 7 0
BBX 6 7 0 0
BITMAP
F8
44
44
78
44
44
F8
ENDCHAR
STARTCHAR C
ENCODING 67
SWIDTH 875 0
DWIDTH 7 0
BBX 6 7 0 0
BITMAP
3C
44
80
80
80
44
38
ENDCHAR
STARTCHAR D
ENCODING 68
SWIDTH 1000 0
DWIDTH 8 0
BBX 7 7 0 0
BITMAP
F8
44
42
42
42
44
F8
ENDCHAR
STARTCHAR E
ENCODING 69
SWIDTH 875 0
DWIDTH 7 0
BBX 6 7 0 0
BITMAP
FC
44
40
78
40
44
FC
ENDCHAR
STARTCHAR F
ENCODING 70
SWIDTH 875 0
DWIDTH 7 0
BBX 6 7 0 0
BITMAP
FC
44
40
78
40
40
E0
ENDCHAR
STARTCHAR G
ENCODING 71
SWIDTH 875 0
DWIDTH 7 0
BBX 6 7 0 0
BITMAP
3C
44
80
8C
84
44
3C
ENDCHAR
STARTCHAR H
ENCODING 72
SWIDTH 1000 0
DWIDTH 8 0
BBX 7 7 0 0
BITMAP
C6
42
42
7E
42
42
C6
ENDCHAR
STARTCHAR I
ENCODING 73
SWIDTH 375 0
DWIDTH 3 0
BBX 2 7 0 0
BITMAP
C0
40
40
40
40
40
C0
ENDCHAR
STARTCHAR J
ENCODING 74
SWIDTH 375 0
DWIDTH 3 0
BBX 3 9 -1 -2
BITMAP
60
20
20
20
20
20
20
20
C0
ENDCHAR
STARTCHAR K
ENCODING 75
SWIDTH 875 0
DWIDTH 7 0
BBX 6 7 0 0
BITMAP
EC
48
50
60
50
48
EC
ENDCHAR
STARTCHAR L
ENCODING 76
SWIDTH 875 0
DWIDTH 7 0
BBX 6 7 0 0
BITMAP
E0
40
40
40
40
44
FC
ENDCHAR
STARTCHAR M
ENCODING 77
SWIDTH 1125 0
DWIDTH 9 0
BBX 8 7 0 0
BITMAP
C1
63
55
55
49
49
E3
ENDCHAR
STARTCHAR N
ENCODING 78
SWIDTH 1000 0
DWIDTH 8 0
BBX 7 7 0 0
BITMAP
C6
62
52
4A
4A
46
E2
ENDCHAR
STARTCHAR O
ENCODING 79
SWIDTH 1000 0
DWIDTH 8 0
BBX 7 7 0 0
BITMAP
38
44
82
82
82
44
38
ENDCHAR
STARTCHAR P
ENCODING 80
SWIDTH 875 0
DWIDTH 7 0
BBX 6 7 0 0
BITMAP
F8
44
44
78
40
40
E0
ENDCHAR
STARTCHAR Q
ENCODING 81
SWIDTH 1000 0
DWIDTH 8 0
BBX 7 8 0 -1
BITMAP
38
44
82
82
82
44
38
06
ENDCHAR
STARTCHAR R
ENCODING 82
SWIDTH 1000 0
DWIDTH 8 0
BBX 7 7 0 0
BITMAP
F8
44
44
78
48
44
E2
ENDCHAR
STARTCHAR S
ENCODING 83
SWIDTH 750 0
DWIDTH 6 0
BBX 5 7 0 0
BITMAP
78
88
80
70
08
88
F0
ENDCHAR
STARTCHAR T
ENCODING 84
SWIDTH 1000 0
DWIDTH 8 0
BBX 7 7 0 0
BITMAP
FE
92
10
10
10
10
38
ENDCHAR
STARTCHAR U
ENCODING 85
SWIDTH 1000 0
DWIDTH 8 0
BBX 7 7 0 0
BITMAP
E6
42
42
42
42
42
3C
ENDCHAR
STARTCHAR V
ENCODING 86
SWIDTH 875 0
DWIDTH 7 0
BBX 6 7 0 0
BITMAP
EC
44
28
28
28
10
10
ENDCHAR
STARTCHAR W
ENCODING 87
SWIDTH 1125 0
DWIDTH 9 0
BBX 8 7 0 0
BITMAP
EB
49
55
55
55
22
22
ENDCHAR
STARTCHAR X
ENCODING 88
SWIDTH 875 0
DWIDTH 7 0
BBX 6 7 0 0
BITMAP
EC
44
28
10
28
44
EC
ENDCHAR
STARTCHAR Y
ENCODING 89
SWIDTH 875 0
DWIDTH 7 0
BBX 6 7 0 0
BITMAP
EC
44
28
10
10
10
38
ENDCHAR
STARTCHAR Z
ENCODING 90
SWIDTH 750 0
DWIDTH 6 0
BBX 5 7 0 0
BITMAP
F8
88
10
20
40
88
F8
ENDCHAR
STARTCHAR bracketleft
ENCODING 91
SWIDTH 500 0
DWIDTH 4 0
BBX 3 9 0 -1
BITMAP
E0
80
80
80
80
80
80
80
E0
ENDCHAR
STARTCHAR backslash
ENCODING 92
SWIDTH 750 0
DWIDTH 6 0
BBX 5 9 0 -1
BITMAP
80
80
40
40
20
10
10
08
08
ENDCHAR
STARTCHAR bracketright
ENCODING 93
SWIDTH 500 0
DWIDTH 4 0
BBX 3 9 0 -1
BITMAP
E0
20
20
20
20
20
20
20
E0
ENDCHAR
STARTCHAR asciicircum
ENCODING 94
SWIDTH 500 0
DWIDTH 4 0
BBX 3 2 0 5
BITMAP
40
A0
ENDCHAR
STARTCHAR underscore
ENCODING 95
SWIDTH 500 0
DWIDTH 4 0
BBX 3 1 0 0
BITMAP
E0
ENDCHAR
STARTCHAR grave
ENCODING 96
SWIDTH 375 0
DWIDTH 3 0
BBX 2 2 0 8
BITMAP
80
40
ENDCHAR
STARTCHAR a
ENCODING 97
SWIDTH 750 0
DWIDTH 6 0
BBX 5 5 0 0
BITMAP
70
08
78
88
78
ENDCHAR
STARTCHAR b
ENCODING 98
SWIDTH 875 0
DWIDTH 7 0
BBX 6 8 0 0
BITMAP
C0
40
40
58
64
44
44
78
ENDCHAR
STARTCHAR c
ENCODING 99
SWIDTH 750 0
DWIDTH 6 0
BBX 5 5 0 0
BITMAP
78
88
80
88
70
ENDCHAR
STARTCHAR d
ENCODING 100
SWIDTH 750 0
DWIDTH 6 0
BBX 5 8 0 0
BITMAP
18
08
08
78
88
88
98
68
ENDCHAR
STARTCHAR e
ENCODING 101
SWIDTH 750 0
DWIDTH 6 0
BBX 5 5 0 0
BITMAP
70
88
F8
80
70
ENDCHAR
STARTCHAR f
ENCODING 102
SWIDTH 625 0
DWIDTH 5 0
BBX 5 8 0 0
BITMAP
38
40
40
F0
40
40
40
E0
ENDCHAR
STARTCHAR g
ENCODING 103
SWIDTH 750 0
DWIDTH 6 0
BBX 5 7 0 -2
BITMAP
78
88
70
80
78
88
F0
ENDCHAR
STARTCHAR h
ENCODING 104
SWIDTH 875 0
DWIDTH 7 0
BBX 6 8 0 0
BITMAP
C0
40
40
58
64
44
44
EC
ENDCHAR
STARTCHAR i
ENCODING 105
SWIDTH 375 0
DWIDTH 3 0
BBX 2 8 0 0
BITMAP
40
00
00
C0
40
40
40
C0
ENDCHAR
STARTCHAR j
ENCODING 106
SWIDTH 375 0
DWIDTH 3 0
BBX 2 10 0 -2
BITMAP
40
00
00
C0
40
40
40
40
40
80
ENDCHAR
STARTCHAR k
ENCODING 107
SWIDTH 875 0
DWIDTH 7 0
BBX 6 8 0 0
BITMAP
C0
40
40
4C
48
70
48
E4
ENDCHAR
STARTCHAR l
ENCODING 108
SWIDTH 375 0
DWIDTH 3 0
BBX 2 8 0 0
BITMAP
C0
40
40
40
40
40
40
C0
ENDCHAR
STARTCHAR m
ENCODING 109
SWIDTH 1375 0
DWIDTH 11 0
BBX 10 5 0 0
BITMAP
D980
6640
4440
4440
EEC0
ENDCHAR
STARTCHAR n
ENCODING 110
SWIDTH 875 0
DWIDTH 7 0
BBX 6 5 0 0
BITMAP
D8
64
44
44
EC
ENDCHAR
STARTCHAR o
ENCODING 111
SWIDTH 750 0
DWIDTH 6 0
BBX 5 5 0 0
BITMAP
70
88
88
88
70
ENDCHAR
STARTCHAR p
ENCODING 112
SWIDTH 875 0
DWIDTH 7 0
BBX 6 7 0 -2
BITMAP
D8
64
44
44
78
40
E0
ENDCHAR
STARTCHAR q
ENCODING 113
SWIDTH 750 0
DWIDTH 6 0
BBX 5 7 0 -2
BITMAP
78
88
88
98
68
08
18
ENDCHAR
STARTCHAR r
ENCODING 114
SWIDTH 750 0
DWIDTH 6 0
BBX 5 5 0 0
BITMAP
D8
60
40
40
E0
ENDCHAR
STARTCHAR s
ENCODING 115
SWIDTH 750 0
DWIDTH 6 0
BBX 5 5 0 0
BITMAP
78
80
70
08
F0
ENDCHAR
STARTCHAR t
ENCODING 116
SWIDTH 625 0
DWIDTH 5 0
BBX 4 6 0 0
BITMAP
40
F0
40
40
40
70
ENDCHAR
STARTCHAR u
ENCODING 117
SWIDTH 875 0
DWIDTH 7 0
BBX 6 5 0 0
BITMAP
CC
44
44
4C
34
ENDCHAR
STARTCHAR v
ENCODING 118
SWIDTH 875 0
DWIDTH 7 0
BBX 6 5 0 0
BITMAP
EC
44
28
28
10
ENDCHAR
STARTCHAR w
ENCODING 119
SWIDTH 1125 0
DWIDTH 9 0
BBX 8 5 0 0
BITMAP
EB
49
55
55
22
ENDCHAR
STARTCHAR x
ENCODING 120
SWIDTH 875 0
DWIDTH 7 0
BBX 6 5 0 0
BITMAP
EC
28
10
28
EC
ENDCHAR
STARTCHAR y
ENCODING 121
SWIDTH 875 0
DWIDTH 7 0
BBX 6 7 0 -2
BITMAP
EC
44
28
28
10
10
60
ENDCHAR
STARTCHAR z
ENCODING 122
SWIDTH 750 0
DWIDTH 6 0
BBX 5 5 0 0
BITMAP
F8
90
20
48
F8
ENDCHAR
STARTCHAR braceleft
ENCODING 123
SWIDTH 500 0
DWIDTH 4 0
BBX 3 9 0 -1
BITMAP
20
40
40
40
80
40
40
40
20
ENDCHAR
STARTCHAR bar
ENCODING 124
SWIDTH 375 0
DWIDTH 3 0
BBX 1 9 1 -1
BITMAP
80
80
80
80
80
80
80
80
80
ENDCHAR
STARTCHAR braceright
ENCODING 125
SWIDTH 500 0
DWIDTH 4 0
BBX 3 9 0 -1
BITMAP
80
40
40
40
20
40
40
40
80
ENDCHAR
STARTCHAR asciitilde
ENCODING 126
SWIDTH 625 0
DWIDTH 5 0
BBX 4 2 0 5
BITMAP
50
A0
ENDCHAR
ENDFONT
